<?xml version="1.0" standalone="no"?><!DOCTYPE svg PUBLIC "-//W3C//DTD SVG 1.1//EN" "http://www.w3.org/Graphics/SVG/1.1/DTD/svg11.dtd"><svg t="1586066278033" class="icon" viewBox="0 0 1024 1024" version="1.1" xmlns="http://www.w3.org/2000/svg" p-id="1480" xmlns:xlink="http://www.w3.org/1999/xlink" width="64" height="64"><defs><style type="text/css"></style></defs><path d="M699 680.4v64.6c0 56.2-6 114.6-52.6 152.2-20.2 15.6-50.4 32.4-105 32.4-14.2 0-56.6 0-96-24-69.6-40.6-64.6-114.6-65.6-254.4-1-52.2-2-104.2-1-157.4 0-29.2 1-59.4 1-89.6 0-25 0-51 2-76 5-60.4 22.2-107.4 75.8-135.6 35.4-17.8 69.6-17.8 81.8-17.8 14.2 0 50.4 0 86.8 20.8 66.6 37.6 73.8 115.8 73.8 186.6 0 56.2 1 112.6 1 168.8 0 44-2 86.6-2 129.4z m-87.8-293c0-50-2-79.2-13.2-100-7-12.6-24.2-30.2-57.6-30.2-54.6 0-64.6 38.6-68.6 60.4-4 25-5 94.8-5 171 0 64.6 0 128.2 1 192.8 0 32.4-1 63.6 2 96 2 24 5 41.6 24.2 57.4 18.2 13.6 38.4 13.6 45.4 13.6 38.4 0 57.6-19.8 63.6-36.4 10-26 8-97 8-122V387.4z" fill="#B0B0B0" p-id="1481"></path></svg>