<?xml version="1.0" standalone="no"?><!DOCTYPE svg PUBLIC "-//W3C//DTD SVG 1.1//EN" "http://www.w3.org/Graphics/SVG/1.1/DTD/svg11.dtd"><svg t="1586066306414" class="icon" viewBox="0 0 1024 1024" version="1.1" xmlns="http://www.w3.org/2000/svg" p-id="1948" xmlns:xlink="http://www.w3.org/1999/xlink" width="64" height="64"><defs><style type="text/css"></style></defs><path d="M375.6 901.4v-88.6l147.4-257.4c11.2-19.8 22.2-39.6 32.4-59.4 32.4-61.6 39.4-90.6 39.4-159.4 0-4.2 1-25-3-41.6-10-49-42.4-55.2-63.6-55.2-24.2 0-34.4 9.4-42.4 17.8-22.2 24-20.2 57.4-20.2 86.6v84.4h-81.8v-91.8c0-10.4 1-20.8 1-30.2 1-21.8 1-90.6 59.6-128.2 25.2-15.6 54.6-21.8 82.8-21.8 95 0 129.2 67.8 140.4 103.2 5 16.6 11.2 45.8 11.2 88.6 0 28.2-2 85.4-31.4 153.2-10 23-22.2 44.8-35.4 67.8l-146.4 253.4h222.2V902H375.6z" fill="#B0B0B0" p-id="1949"></path></svg>