<?xml version="1.0" standalone="no"?><!DOCTYPE svg PUBLIC "-//W3C//DTD SVG 1.1//EN" "http://www.w3.org/Graphics/SVG/1.1/DTD/svg11.dtd"><svg t="1586066316288" class="icon" viewBox="0 0 1024 1024" version="1.1" xmlns="http://www.w3.org/2000/svg" p-id="2182" xmlns:xlink="http://www.w3.org/1999/xlink" width="64" height="64"><defs><style type="text/css"></style></defs><path d="M644.8 811.8c-13.2 37.6-52.6 99-147.4 99-15.2 0-69.6-2-112-36.4-28.2-23-44.4-58.4-44.4-133.4 0-19.8 1-39.6 1-60.4l80.8 1c-1 21.8 0 44.8 1 66.8 1 29.2 3 51 26.2 68.8 7 5.2 21.2 13.6 42.4 13.6 5 0 30.2-1 47.4-14.6 31.4-25 27.2-73 27.2-106.4 0-14.6 1-30.2 1-44.8 0-4.2 1-51-16.2-79.2-16.2-25-48.4-31.2-75.8-31.2-9 0-18.2 0-28.2 1l1-82.4c1 0 60.6 7.2 86.8-18.8 22.2-20.8 25.2-60.4 25.2-86.6 0-23-1-44.8-3-67.8-1-20.8-6-63.6-62.6-63.6-8 0-24.2-1-39.4 14.6-18.2 18.8-22.2 44.8-22.2 94.8 0 9.4 0 18.8 1 28.2H354c-1-19.8-1-39.6 0-59.4 2-64.6 14.2-123 79.8-148 9-3.2 35.4-10.4 64.6-10.4 43.4 0 70.6 13.6 86.8 24 42.4 29.2 60.6 73 60.6 170 0 75-6 112.6-34.4 137.6-19.2 17.8-40.4 19.8-48.4 21.8 20.2 5.2 66.6 13.6 82.8 73 9 31.2 11.2 109.4 11.2 142.8-0.2 11.4-0.2 52-12.2 86.4z" fill="#B0B0B0" p-id="2183"></path></svg>