<?xml version="1.0" standalone="no"?><!DOCTYPE svg PUBLIC "-//W3C//DTD SVG 1.1//EN" "http://www.w3.org/Graphics/SVG/1.1/DTD/svg11.dtd"><svg t="1586066338660" class="icon" viewBox="0 0 1024 1024" version="1.1" xmlns="http://www.w3.org/2000/svg" p-id="2650" xmlns:xlink="http://www.w3.org/1999/xlink" width="64" height="64"><defs><style type="text/css"></style></defs><path d="M672.6 747c-1 47-3 88.6-32.4 127.2-42.4 58.4-106 59.4-129.2 59.4-65.6 0-98-26-116.2-47-13.2-15.6-23.2-33.4-28.2-52.2-6-18.8-9-42.8-9-85.4 0-13.6 0-27.2 1-40.6l83.8 1c-1 54.2-1 85.4 11.2 109.4 11.2 23 37.4 32.4 60.6 32.4 32.4 0 49.4-15.6 57.6-27.2 17.2-26 13.2-67.8 14.2-132.4 0-20.8 1-42.8 1-64.6 0-36.4-2-66.8-6-80.2-4-15.6-19.2-47-61.6-47-7 0-22.2 0-36.4 11.4-18.2 13.6-23.2 33.4-23.2 75h-80.8L390.2 188h275.6v79.2h-194.8l-5 183.4c1-2 8-8.4 14.2-12.6 19.2-12.6 49.4-19.8 71.6-19.8 13.2 0 44.4 2 73.8 24 41.4 32.4 48.4 79.2 48.4 178.2-0.4 42.2-1.4 83.8-1.4 126.6z" fill="#B0B0B0" p-id="2651"></path></svg>