<?xml version="1.0" standalone="no"?><!DOCTYPE svg PUBLIC "-//W3C//DTD SVG 1.1//EN" "http://www.w3.org/Graphics/SVG/1.1/DTD/svg11.dtd"><svg t="1586066346372" class="icon" viewBox="0 0 1024 1024" version="1.1" xmlns="http://www.w3.org/2000/svg" p-id="2884" xmlns:xlink="http://www.w3.org/1999/xlink" width="64" height="64"><defs><style type="text/css"></style></defs><path d="M662.2 779.2c-3 43.8-7 81.4-38.4 111.6-43.4 43.8-101 42.8-118.2 42.8-17.2 0-67.6 0-105-34.4-46.4-42.8-46.4-97-46.4-210.6V365.4c0-103.2 27.2-147 74.8-171 24.2-11.4 50.4-15.6 76.8-15.6 75.8 0 113 32.4 130.2 62.6 23.2 38.6 21.2 79.2 20.2 122l-82.8-1c0-37.6 1-57.4-7-74-7-12.6-25.2-28.2-58.6-28.2-65.6 0-68.6 59.4-69.6 79.2-2 33.4-1 66.8-1 100v56.2c15.2-18.8 41.4-53.2 99-53.2 8 0 28.2 1 49.4 10.4 30.2 12.6 56.6 38.6 67.6 70.8 10 31.2 12.2 83.4 12.2 157.4-0.2 32.6-1.2 64.8-3.2 98.2z m-84.8-174c-1-18.8-2-40.6-12.2-56.2-12.2-20.8-36.4-29.2-58.6-29.2-12.2 0-46.4 3.2-59.6 39.6-8 24-9 67.8-9 126.2v73c0 2 0 40.6 11.2 62.6 16.2 31.2 51.4 32.4 60.6 32.4 37.4 0 52.6-20.8 58.6-35.4 9-20.8 10-68.8 10-127.2 0-28.4 0-56.6-1-85.8z" fill="#B0B0B0" p-id="2885"></path></svg>