<?xml version="1.0" standalone="no"?><!DOCTYPE svg PUBLIC "-//W3C//DTD SVG 1.1//EN" "http://www.w3.org/Graphics/SVG/1.1/DTD/svg11.dtd"><svg t="1586066360738" class="icon" viewBox="0 0 1024 1024" version="1.1" xmlns="http://www.w3.org/2000/svg" p-id="3352" xmlns:xlink="http://www.w3.org/1999/xlink" width="64" height="64"><defs><style type="text/css"></style></defs><path d="M672.6 820c-11.2 47-32.4 75-75.8 93.8-34.4 14.6-63.6 15.6-76.8 15.6-14.2 0-50.4-1-86.8-21.8-42.4-25-65.6-64.6-65.6-161.6 0-93.8-2-148 28.2-185.6 19.2-24 44.4-30.2 53.6-32.4-2 0-17.2-3.2-26.2-7.2-17.2-8.4-37.4-29.2-43.4-74-3-21.8-4-48-4-94.8 0-59.4 8-122 61.6-155.4 27.2-17.8 58.6-21.8 88.8-21.8 66.6 0 106 27.2 123.2 51 24.2 32.4 27.2 79.2 27.2 116.8 0 32.4 0 63.6-4 96-1 12.6-4 64.6-50.4 83.4-9 4.2-13.2 4.2-22.2 6.2 10 2 31.4 7.2 50.4 28.2 25.2 27.2 31.4 61.6 31.4 132.4-0.2 68.8-0.2 95.8-9.2 131.2z m-78.8-157.4c0-16.6-1-85.4-69.6-84.4-32.4 0-47.4 14.6-54.6 26-16.2 24-13.2 49-14.2 76 0 15.6-1 31.2-1 47 0 12.6 1 25 1 37.6 1 19.8 1 82.4 68.6 82.4 15.2 0 51.4-3.2 64.6-45.8 5-17.8 6-47 6-88.6 0.2-16.8 0.2-33.4-0.8-50.2z m-5-368c-4-17.8-18.2-48-62.6-47-6 0-27.2 0-43.4 13.6-20.2 17.8-25.2 52.2-25.2 107.4 0 15.6 0 31.2 1 47 1 19.8 3 35.4 15.2 51 9 11.4 23.2 23 54.6 23 41.4 0 55.6-30.2 59.6-45.8 3-13.6 4-44.8 5-82.4-0.2-1 1.8-44.8-4.2-66.8z" fill="#B0B0B0" p-id="3353"></path></svg>