<?xml version="1.0" encoding="UTF-8" standalone="no"?>
<svg
   xmlns:dc="http://purl.org/dc/elements/1.1/"
   xmlns:cc="http://creativecommons.org/ns#"
   xmlns:rdf="http://www.w3.org/1999/02/22-rdf-syntax-ns#"
   xmlns:svg="http://www.w3.org/2000/svg"
   xmlns="http://www.w3.org/2000/svg"
   xmlns:sodipodi="http://sodipodi.sourceforge.net/DTD/sodipodi-0.dtd"
   xmlns:inkscape="http://www.inkscape.org/namespaces/inkscape"
   t="1586066367603"
   class="icon"
   viewBox="0 0 1024 1024"
   version="1.1"
   p-id="3586"
   width="64"
   height="64"
   id="svg8"
   sodipodi:docname="9.svg"
   inkscape:version="0.92.4 (5da689c313, 2019-01-14)">
  <metadata
     id="metadata12">
    <rdf:RDF>
      <cc:Work
         rdf:about="">
        <dc:format>image/svg+xml</dc:format>
        <dc:type
           rdf:resource="http://purl.org/dc/dcmitype/StillImage" />
      </cc:Work>
    </rdf:RDF>
  </metadata>
  <sodipodi:namedview
     pagecolor="#ffffff"
     bordercolor="#666666"
     borderopacity="1"
     objecttolerance="10"
     gridtolerance="10"
     guidetolerance="10"
     inkscape:pageopacity="0"
     inkscape:pageshadow="2"
     inkscape:window-width="1920"
     inkscape:window-height="1013"
     id="namedview10"
     showgrid="false"
     inkscape:zoom="10.429825"
     inkscape:cx="32"
     inkscape:cy="32"
     inkscape:window-x="1591"
     inkscape:window-y="-9"
     inkscape:window-maximized="1"
     inkscape:current-layer="svg8" />
  <defs
     id="defs4">
    <style
       type="text/css"
       id="style2" />
  </defs>
  <path
     d="M 699.2,658.8 V 739 c 0,17.8 2,80.2 -39.4,128.2 -19.2,23 -49.4,44.8 -115.2,44.8 -79.8,0 -119.2,-42.8 -134.2,-74 -7,-15.6 -13.2,-36.4 -13.2,-76 0,-18.8 1,-35.4 1,-53.2 H 479 c 0,18.8 -1,36.4 0,56.2 1,20.8 3,36.4 19.2,50 9,8.4 22.2,15.6 48.4,15.6 6,0 25.2,0 41.4,-13.6 24.2,-19.8 25.2,-47 27.2,-103.2 0,-14.6 1,-29.2 1,-43.8 0,-28.2 -1,-56.2 -1,-84.4 -16.2,15.6 -46.4,45.8 -103,45.8 -56.6,0 -85.8,-31.2 -99,-50 C 396,555.4 389,518.8 389,452.2 c 0,-42.8 1,-85.4 3,-129.2 3,-57.4 7,-104.2 55.6,-138.6 40.4,-28.2 83.8,-27.2 99,-27.2 61.6,0 89.8,18.8 110,39.6 6,5.2 18.2,19.8 28.2,40.6 20.2,43.8 15.2,87.6 15.2,182.4 0.2,79.6 -0.8,159.8 -0.8,239 z M 616.4,324.2 c 0,-26 -3,-50 -23.2,-69.8 -16.2,-15.6 -37.4,-16.6 -45.4,-16.6 -40.4,0 -56.6,26 -63.6,40.6 -10,21.8 -7,37.6 -8,83.4 0,15.6 -1,31.2 -1,47 v 61.6 c 0,6.2 1,25 8,41.6 7,15.6 23.2,40.6 63.6,40.6 10,0 34.4,-1 51.4,-21.8 10,-12.6 13.2,-24 15.2,-30.2 3,-13.6 3,-33.4 3,-36.4 z"
     p-id="3587"
     id="path6"
     inkscape:connector-curvature="0"
     style="fill:#b0b0b0" />
</svg>
